Coordinates
version=1
nRows=27
nColumns=12
inDegrees=yes

Units are S.I. units (second, meters, Newtons, ...)
Angles are in degrees

endheader
time	SC_y	SC_z	SC_x	AC_y	AC_z	AC_x	GH_y	GH_z	GH_yy	EL_x	PS_y
       0.0               -41.3          25.19          76.81          38.17         -10.88          12.33          69.21         -7.996         -144.7          38.38          8.068
   0.03843               -41.3           25.2          76.81          38.18         -10.88          12.32          69.17         -7.994         -144.6          38.39          8.088
   0.07686               -41.3           25.2           76.8          38.18         -10.88          12.32          69.14         -7.992         -144.6           38.4          8.108
    0.1153               -41.3           25.2           76.8          38.19         -10.88          12.32           69.1         -7.991         -144.6          38.41           8.13
    0.1537               -41.3           25.2          76.79          38.19         -10.88          12.31          69.06         -7.989         -144.5          38.42          8.154
    0.1922               -41.3           25.2          76.79           38.2         -10.88           12.3          69.02         -7.986         -144.5          38.43          8.179
    0.2306               -41.3           25.2          76.78           38.2         -10.88           12.3          68.97         -7.984         -144.5          38.44          8.206
     0.269               -41.3          25.21          76.78          38.21         -10.88          12.29          68.92         -7.982         -144.4          38.46          8.234
    0.3075              -41.31          25.21          76.77          38.22         -10.88          12.29          68.87         -7.979         -144.4          38.47          8.265
    0.3459              -41.31          25.21          76.77          38.22         -10.88          12.28          68.81         -7.976         -144.3          38.49          8.297
    0.3843              -41.31          25.21          76.76          38.23         -10.88          12.27          68.75         -7.973         -144.3           38.5          8.333
    0.4228              -41.31          25.22          76.76          38.24         -10.88          12.26          68.69          -7.97         -144.2          38.52          8.371
    0.4612              -41.31          25.22          76.75          38.25         -10.88          12.26          68.62         -7.966         -144.1          38.54          8.411
    0.4996              -41.31          25.22          76.74          38.26         -10.88          12.25          68.54         -7.962         -144.1          38.56          8.456
     0.538              -41.31          25.22          76.73          38.27         -10.88          12.24          68.46         -7.958         -144.0          38.58          8.503
    0.5765              -41.31          25.23          76.72          38.28         -10.88          12.22          68.37         -7.954         -143.9          38.61          8.555
    0.6149              -41.32          25.23          76.71          38.29         -10.88          12.21          68.27         -7.949         -143.8          38.63          8.612
    0.6533              -41.32          25.24           76.7          38.31         -10.88           12.2          68.16         -7.944         -143.7          38.66          8.673
    0.6918              -41.32          25.24          76.69          38.32         -10.88          12.19          68.05         -7.938         -143.6          38.69           8.74
    0.7302              -41.32          25.25          76.68          38.34         -10.88          12.17          67.92         -7.932         -143.5          38.73          8.813
    0.7686              -41.32          25.25          76.66          38.36         -10.88          12.15          67.78         -7.925         -143.4          38.76          8.894
    0.8071              -41.33          25.26          76.65          38.38         -10.88          12.13          67.63         -7.917         -143.2           38.8          8.982
    0.8455              -41.33          25.26          76.63           38.4         -10.88          12.11          67.46         -7.908         -143.1          38.85           9.08
    0.8839              -41.33          25.27          76.61          38.42         -10.88          12.09          67.27         -7.899         -142.9           38.9          9.189
    0.9224              -41.34          25.28          76.59          38.45         -10.88          12.06          67.06         -7.889         -142.7          38.96          9.309
    0.9608              -41.34          25.29          76.57          38.48         -10.88          12.03          66.83         -7.877         -142.5          39.02          9.444
    0.9992              -41.35           25.3          76.54          38.51         -10.88           12.0          66.57         -7.864         -142.3          39.09          9.595
